<svg preserveAspectRatio="none" width="100%" height="100%" overflow="visible" style="display: block;" viewBox="0 0 15.1667 15.1667" fill="none" xmlns="http://www.w3.org/2000/svg">
<path id="add_circle" d="M7.04167 8.125V10.8333C7.04167 10.9868 7.09319 11.1154 7.19625 11.2192C7.29931 11.3231 7.42694 11.375 7.57917 11.375C7.73153 11.375 7.86056 11.3231 7.96625 11.2192C8.07208 11.1154 8.125 10.9868 8.125 10.8333V8.125H10.8333C10.9868 8.125 11.1154 8.07347 11.2192 7.97042C11.3231 7.86736 11.375 7.73972 11.375 7.5875C11.375 7.43514 11.3231 7.30611 11.2192 7.20042C11.1154 7.09458 10.9868 7.04167 10.8333 7.04167H8.125V4.33333C8.125 4.17986 8.07347 4.05125 7.97042 3.9475C7.86736 3.84361 7.73972 3.79167 7.5875 3.79167C7.43514 3.79167 7.30611 3.84361 7.20042 3.9475C7.09458 4.05125 7.04167 4.17986 7.04167 4.33333V7.04167H4.33333C4.17986 7.04167 4.05125 7.09319 3.9475 7.19625C3.84361 7.29931 3.79167 7.42694 3.79167 7.57917C3.79167 7.73153 3.84361 7.86056 3.9475 7.96625C4.05125 8.07208 4.17986 8.125 4.33333 8.125H7.04167ZM7.59042 15.1667C6.54722 15.1667 5.56472 14.9693 4.64292 14.5746C3.72111 14.1799 2.91431 13.6367 2.2225 12.9452C1.53069 12.2537 0.987292 11.4475 0.592292 10.5267C0.19743 9.60597 0 8.62215 0 7.57521C0 6.52826 0.197361 5.54736 0.592083 4.6325C0.986806 3.71764 1.52993 2.91431 2.22146 2.2225C2.91299 1.53069 3.71917 0.987292 4.64 0.592292C5.56069 0.19743 6.54451 0 7.59146 0C8.6384 0 9.61931 0.197361 10.5342 0.592083C11.449 0.986805 12.2524 1.52993 12.9442 2.22146C13.636 2.91299 14.1794 3.7175 14.5744 4.635C14.9692 5.55264 15.1667 6.53306 15.1667 7.57625C15.1667 8.61944 14.9693 9.60194 14.5746 10.5238C14.1799 11.4456 13.6367 12.2524 12.9452 12.9442C12.2537 13.636 11.4492 14.1794 10.5317 14.5744C9.61403 14.9692 8.63361 15.1667 7.59042 15.1667ZM7.58333 14.0833C9.38889 14.0833 10.9236 13.4514 12.1875 12.1875C13.4514 10.9236 14.0833 9.38889 14.0833 7.58333C14.0833 5.77778 13.4514 4.24306 12.1875 2.97917C10.9236 1.71528 9.38889 1.08333 7.58333 1.08333C5.77778 1.08333 4.24306 1.71528 2.97917 2.97917C1.71528 4.24306 1.08333 5.77778 1.08333 7.58333C1.08333 9.38889 1.71528 10.9236 2.97917 12.1875C4.24306 13.4514 5.77778 14.0833 7.58333 14.0833Z" fill="var(--fill-0, black)"/>
</svg>
