<svg preserveAspectRatio="none" width="100%" height="100%" overflow="visible" style="display: block;" viewBox="0 0 15.1667 15.1667" fill="none" xmlns="http://www.w3.org/2000/svg">
<path id="block" d="M7.58479 15.1667C6.54535 15.1667 5.56472 14.9693 4.64292 14.5746C3.72111 14.1799 2.91431 13.6367 2.2225 12.9452C1.53069 12.2537 0.987292 11.4472 0.592292 10.5258C0.19743 9.60444 0 8.6241 0 7.58479C0 6.53146 0.197361 5.54736 0.592083 4.6325C0.986806 3.71764 1.52993 2.91431 2.22146 2.2225C2.91299 1.53069 3.71944 0.987292 4.64083 0.592292C5.56222 0.19743 6.54257 0 7.58187 0C8.63521 0 9.61931 0.197361 10.5342 0.592083C11.449 0.986805 12.2524 1.52993 12.9442 2.22146C13.636 2.91299 14.1794 3.71597 14.5744 4.63042C14.9692 5.54486 15.1667 6.52868 15.1667 7.58187C15.1667 8.62132 14.9693 9.60194 14.5746 10.5238C14.1799 11.4456 13.6367 12.2524 12.9452 12.9442C12.2537 13.636 11.4507 14.1794 10.5363 14.5744C9.62181 14.9692 8.63799 15.1667 7.58479 15.1667ZM7.58333 14.0833C8.37903 14.0833 9.13194 13.9476 9.84208 13.6763C10.5521 13.4049 11.1928 13.0256 11.7644 12.5385L2.62812 3.40229C2.14632 3.97382 1.7684 4.61458 1.49437 5.32458C1.22035 6.03472 1.08333 6.78764 1.08333 7.58333C1.08333 9.38889 1.71528 10.9236 2.97917 12.1875C4.24306 13.4514 5.77778 14.0833 7.58333 14.0833ZM12.5385 11.7644C13.0256 11.1928 13.4049 10.5521 13.6763 9.84208C13.9476 9.13195 14.0833 8.37903 14.0833 7.58333C14.0833 5.77778 13.4514 4.24306 12.1875 2.97917C10.9236 1.71528 9.38889 1.08333 7.58333 1.08333C6.78569 1.08333 6.03097 1.21771 5.31917 1.48646C4.6075 1.75507 3.96854 2.13563 3.40229 2.62813L12.5385 11.7644Z" fill="var(--fill-0, black)"/>
</svg>
