<svg preserveAspectRatio="none" width="100%" height="100%" overflow="visible" style="display: block;" viewBox="0 0 8.375 15.1667" fill="none" xmlns="http://www.w3.org/2000/svg">
<path id="arrow_back_ios_new" d="M2.20833 7.58333L8.08333 13.4583C8.27778 13.6528 8.375 13.8889 8.375 14.1667C8.375 14.4444 8.27778 14.6806 8.08333 14.875C7.88889 15.0694 7.65278 15.1667 7.375 15.1667C7.09722 15.1667 6.86111 15.0694 6.66667 14.875L0.4375 8.64583C0.284722 8.49306 0.173611 8.32639 0.104167 8.14583C0.0347222 7.96528 0 7.77778 0 7.58333C0 7.38889 0.0347222 7.20139 0.104167 7.02083C0.173611 6.84028 0.284722 6.67361 0.4375 6.52083L6.66667 0.291667C6.86111 0.0972222 7.09722 0 7.375 0C7.65278 0 7.88889 0.0972222 8.08333 0.291667C8.27778 0.486111 8.375 0.722222 8.375 1C8.375 1.27778 8.27778 1.51389 8.08333 1.70833L2.20833 7.58333Z" fill="var(--fill-0, black)"/>
</svg>
