<svg preserveAspectRatio="none" width="100%" height="100%" overflow="visible" style="display: block;" viewBox="0 0 15 3" fill="none" xmlns="http://www.w3.org/2000/svg">
<g id="Vector">
<path d="M2.25 1.5C2.25 1.91421 1.91421 2.25 1.5 2.25C1.08579 2.25 0.75 1.91421 0.75 1.5C0.75 1.08579 1.08579 0.75 1.5 0.75C1.91421 0.75 2.25 1.08579 2.25 1.5Z" stroke="var(--stroke-0, black)" stroke-width="1.5" stroke-linecap="round" stroke-linejoin="round"/>
<path d="M8.25 1.5C8.25 1.91421 7.91421 2.25 7.5 2.25C7.08579 2.25 6.75 1.91421 6.75 1.5C6.75 1.08579 7.08579 0.75 7.5 0.75C7.91421 0.75 8.25 1.08579 8.25 1.5Z" stroke="var(--stroke-0, black)" stroke-width="1.5" stroke-linecap="round" stroke-linejoin="round"/>
<path d="M14.25 1.5C14.25 1.91421 13.9142 2.25 13.5 2.25C13.0858 2.25 12.75 1.91421 12.75 1.5C12.75 1.08579 13.0858 0.75 13.5 0.75C13.9142 0.75 14.25 1.08579 14.25 1.5Z" stroke="var(--stroke-0, black)" stroke-width="1.5" stroke-linecap="round" stroke-linejoin="round"/>
</g>
</svg>
