<svg preserveAspectRatio="none" width="100%" height="100%" overflow="visible" style="display: block;" viewBox="0 0 16.5 15.5" fill="none" xmlns="http://www.w3.org/2000/svg">
<g id="feedback">
<path id="feedback_2" d="M4.78868 4.82812H11.7118M4.78868 7.16145H8.25022M0.75 8.3406C0.75 9.58589 1.61416 10.6698 2.83266 10.851C3.66813 10.9752 4.5127 11.0711 5.36538 11.1377V14.75L8.58345 11.4962C8.74247 11.3354 8.95718 11.244 9.182 11.2383C10.7017 11.2003 12.1985 11.0694 13.6673 10.8511C14.8858 10.6699 15.75 9.58599 15.75 8.34069V3.65932C15.75 2.41402 14.8858 1.33009 13.6673 1.14895C11.8993 0.886121 10.0905 0.75 8.25022 0.75C6.40981 0.75 4.60086 0.886146 2.83267 1.14902C1.61417 1.33017 0.75 2.4141 0.75 3.65939V8.3406Z" stroke="var(--stroke-0, black)" stroke-width="1.5" stroke-linecap="round" stroke-linejoin="round"/>
</g>
</svg>
