<svg preserveAspectRatio="none" width="100%" height="100%" overflow="visible" style="display: block;" viewBox="0 0 17.5 17.5" fill="none" xmlns="http://www.w3.org/2000/svg">
<path id="Vector" d="M8.75 16.75C12.4767 16.75 15.6083 14.2017 16.4973 10.7526M8.75 16.75C5.02327 16.75 1.89171 14.2017 1.00271 10.7526M8.75 16.75C10.9591 16.75 12.75 13.1683 12.75 8.75C12.75 4.33172 10.9591 0.75 8.75 0.75M8.75 16.75C6.54086 16.75 4.75 13.1683 4.75 8.75C4.75 4.33172 6.54086 0.75 8.75 0.75M16.4973 10.7526C16.6623 10.1126 16.75 9.44154 16.75 8.75C16.75 7.323 16.3764 5.98327 15.7216 4.82329C14.3491 2.39172 11.7413 0.75 8.75 0.75M1.00271 10.7526C0.837745 10.1126 0.75 9.44154 0.75 8.75C0.75 7.323 1.12362 5.98327 1.77838 4.82329C3.15088 2.39172 5.75872 0.75 8.75 0.75M15.7216 4.82329C13.852 6.43924 11.4151 7.41667 8.75 7.41667C6.08486 7.41667 3.64802 6.43924 1.77838 4.82329M16.4973 10.7526C14.2019 12.0253 11.5606 12.75 8.75 12.75C5.93943 12.75 3.29811 12.0253 1.00271 10.7526" stroke="var(--stroke-0, black)" stroke-width="1.5" stroke-miterlimit="8.2289"/>
</svg>
