<svg preserveAspectRatio="none" width="100%" height="100%" overflow="visible" style="display: block;" viewBox="0 0 17.5 17.5" fill="none" xmlns="http://www.w3.org/2000/svg">
<path id="Vector" d="M6.86458 4.76675C7.90598 3.85553 9.59442 3.85553 10.6358 4.76675C11.6772 5.67797 11.6772 7.15536 10.6358 8.06658C10.4546 8.22518 10.2537 8.35618 10.0401 8.45957C9.37724 8.78035 8.7502 9.34695 8.7502 10.0833V10.75M16.75 8.75C16.75 13.1683 13.1683 16.75 8.75 16.75C4.33172 16.75 0.75 13.1683 0.75 8.75C0.75 4.33172 4.33172 0.75 8.75 0.75C13.1683 0.75 16.75 4.33172 16.75 8.75ZM8.75 13.4167H8.75667V13.4233H8.75V13.4167Z" stroke="var(--stroke-0, black)" stroke-width="1.5" stroke-miterlimit="8.2289"/>
</svg>
