<svg preserveAspectRatio="none" width="100%" height="100%" overflow="visible" style="display: block;" viewBox="0 0 32.1723 32" fill="none" xmlns="http://www.w3.org/2000/svg">
<g id="Vector">
<path d="M11.4691 7.37972C11.4691 4.98673 9.52921 3.04683 7.13622 3.04683C4.74323 3.04683 2.80333 4.98673 2.80333 7.37972C2.80333 9.77271 4.74323 11.7126 7.13622 11.7126V14.3124C3.30744 14.3124 0.203593 11.2085 0.203593 7.37972C0.203593 3.55094 3.30744 0.447095 7.13622 0.447095C10.965 0.447095 14.0688 3.55094 14.0688 7.37972C14.0688 11.2085 10.965 14.3124 7.13622 14.3124V11.7126C9.52921 11.7126 11.4691 9.77271 11.4691 7.37972Z" fill="var(--fill-0, black)"/>
<path d="M31.4004 24.7113C31.4004 28.5401 28.2966 31.6439 24.4678 31.6439C20.639 31.6439 17.5352 28.5401 17.5352 24.7113C17.5352 20.8825 20.639 17.7787 24.4678 17.7787C28.2966 17.7787 31.4004 20.8825 31.4004 24.7113Z" fill="var(--fill-0, black)"/>
<path d="M17.8564 9.80813C16.6439 8.59562 16.6439 6.62975 17.8564 5.41724L22.3642 0.909383C23.5767 -0.303127 25.5426 -0.303128 26.7551 0.909383L31.263 5.41724C32.4755 6.62975 32.4755 8.59561 31.263 9.80812L26.7551 14.316C25.5426 15.5285 23.5767 15.5285 22.3642 14.316L17.8564 9.80813Z" fill="var(--fill-0, black)"/>
<path d="M12.4772 24.7442L14.3155 26.5825L9.80711 31.0909L7.96882 29.2526L12.4772 24.7442ZM12.4772 24.0309L7.96882 19.5226C7.77153 19.3258 7.45261 19.3255 7.25553 19.5226L2.74717 24.0309C2.55059 24.228 2.55059 24.5471 2.74717 24.7442L7.25553 29.2526C7.45261 29.4497 7.77153 29.4493 7.96882 29.2526L9.80711 31.0909C8.59456 32.3029 6.62958 32.3032 5.41724 31.0909L0.908876 26.5825C-0.302959 25.3701 -0.302959 23.405 0.908876 22.1926L5.41724 17.6843C6.62958 16.4719 8.59456 16.4723 9.80711 17.6843L14.3155 22.1926C15.528 23.4051 15.528 25.37 14.3155 26.5825L12.4772 24.7442C12.6744 24.547 12.6744 24.2282 12.4772 24.0309Z" fill="var(--fill-0, black)"/>
</g>
</svg>
