<svg preserveAspectRatio="none" width="100%" height="100%" overflow="visible" style="display: block;" viewBox="0 0 39 40" fill="none" xmlns="http://www.w3.org/2000/svg">
<g id="Vector">
<path d="M32.5064 26.3744C31.1145 23.67 31.1145 20.4632 32.5064 17.7587L33.0445 16.7139C33.8831 15.0848 32.7534 13.1328 30.9192 13.043L29.7435 12.9857C26.6992 12.8348 23.9152 11.2305 22.2628 8.67688L21.6252 7.69135C20.6277 6.15193 18.3703 6.15193 17.3746 7.69135L16.737 8.67688C15.0846 11.2324 12.3007 12.8348 9.25632 12.9857L8.0807 13.043C6.24451 13.1328 5.11676 15.0828 5.95539 16.7139L6.49342 17.7587C7.8854 20.4632 7.8854 23.67 6.49342 26.3744L5.95539 27.4192C5.11676 29.0484 6.24642 31.0003 8.0807 31.0901L9.25632 31.1474C11.8814 31.2773 14.3092 32.4901 15.9884 34.4573L15.9654 34.2014C15.8735 33.1509 15.5997 32.1234 15.1651 31.1646L15.1612 31.155C14.7036 30.1409 14.1082 29.1954 13.348 28.3856C11.8048 26.7412 10.9183 24.4779 11.104 22.0102C11.4238 17.7262 14.8683 14.422 19.1725 14.2597C23.9727 14.0763 27.9207 17.9057 27.9207 22.652H27.9188L27.915 22.6539V22.6577C27.915 24.8503 27.0725 26.8462 25.692 28.3398C24.9223 29.1763 24.2943 30.1313 23.8233 31.1665C23.3887 32.1272 23.1187 33.1509 23.023 34.2014L22.9981 34.4707C24.6773 32.4939 27.1127 31.2773 29.7435 31.1474L30.9192 31.0901C32.7553 31.0003 33.8831 29.0503 33.0445 27.4192L32.5064 26.3744Z" fill="var(--fill-0, black)"/>
<path d="M1.24525 29.6214C0.0370773 30.307 -0.357349 31.8541 0.358746 33.0745C1.07484 34.295 2.63915 34.7305 3.84349 34.0467C5.05166 33.361 5.44608 31.814 4.72999 30.5935C4.01389 29.3731 2.45342 28.9357 1.24525 29.6214Z" fill="var(--fill-0, black)"/>
<path d="M37.7565 14.5156C38.9647 13.8299 39.3591 12.2829 38.643 11.0624C37.9269 9.84195 36.3645 9.40457 35.1583 10.0902C33.9501 10.7759 33.5557 12.323 34.2718 13.5434C34.9879 14.7639 36.5522 15.1994 37.7565 14.5156Z" fill="var(--fill-0, black)"/>
<path d="M37.7565 29.6214C36.5503 28.9376 34.9917 29.3712 34.2718 30.5935C33.5519 31.8159 33.9501 33.3629 35.1564 34.0467C36.3626 34.7305 37.9231 34.295 38.6411 33.0745C39.361 31.8522 38.9609 30.3051 37.7565 29.6214Z" fill="var(--fill-0, black)"/>
<path d="M1.24333 14.5156C2.44959 15.1993 4.00815 14.7658 4.72807 13.5434C5.448 12.3211 5.04783 10.774 3.84349 10.0902C2.63723 9.40648 1.07867 9.84004 0.358745 11.0624C-0.36118 12.2848 0.0370763 13.8318 1.24333 14.5156Z" fill="var(--fill-0, black)"/>
<path d="M19.4999 5.07282C20.9034 5.07282 22.0427 3.9364 22.0427 2.53641C22.0427 1.13642 20.9034 0 19.4999 0C18.0965 0 16.9572 1.13833 16.9572 2.53641C16.9572 3.93449 18.0965 5.07282 19.4999 5.07282Z" fill="var(--fill-0, black)"/>
<path d="M15.998 34.4688H15.9941L16.2545 37.3051C16.3943 38.8311 17.6791 40 19.2146 40H19.7814C21.3132 40 22.596 38.8388 22.7396 37.3165C22.7396 37.3127 22.7396 37.3108 22.7396 37.307H22.7415L23.0038 34.4745C23.0038 34.4745 22.9981 34.4783 22.9962 34.4803C20.867 36.1572 18.1233 36.1534 15.9961 34.4688H15.998Z" fill="var(--fill-0, black)"/>
</g>
</svg>
