<svg preserveAspectRatio="none" width="100%" height="100%" overflow="visible" style="display: block;" viewBox="0 0 8.69825 15.8233" fill="none" xmlns="http://www.w3.org/2000/svg">
<path id="arrow_forward_ios" d="M6.42742 7.91667L0.302419 1.79167C0.094086 1.58333 -0.00660842 1.33681 0.000336022 1.05208C0.00728047 0.767361 0.114919 0.520833 0.323253 0.3125C0.531586 0.104167 0.778114 0 1.06284 0C1.34756 0 1.59409 0.104167 1.80242 0.3125L8.19825 6.72917C8.36492 6.89583 8.48992 7.08333 8.57325 7.29167C8.65659 7.5 8.69825 7.70833 8.69825 7.91667C8.69825 8.125 8.65659 8.33333 8.57325 8.54167C8.48992 8.75 8.36492 8.9375 8.19825 9.10417L1.78159 15.5208C1.57325 15.7292 1.3302 15.8299 1.05242 15.8229C0.774642 15.816 0.531586 15.7083 0.323253 15.5C0.114919 15.2917 0.0107527 15.0451 0.0107527 14.7604C0.0107527 14.4757 0.114919 14.2292 0.323253 14.0208L6.42742 7.91667Z" fill="var(--fill-0, black)"/>
</svg>
