<svg preserveAspectRatio="none" width="100%" height="100%" overflow="visible" style="display: block;" viewBox="0 0 15.5 14.5" fill="none" xmlns="http://www.w3.org/2000/svg">
<path id="Vector (Stroke)" d="M9 11.25C9 10.6055 9.18816 10.0052 9.51172 9.5H3.25C2.2835 9.5 1.5 10.2835 1.5 11.25C1.5 12.2165 2.2835 13 3.25 13H9.51172C9.18816 12.4948 9 11.8945 9 11.25ZM5 3.25C5 2.2835 4.2165 1.5 3.25 1.5C2.2835 1.5 1.5 2.2835 1.5 3.25C1.5 4.2165 2.2835 5 3.25 5C4.2165 5 5 4.2165 5 3.25ZM10.5 11.25C10.5 12.2165 11.2835 13 12.25 13C13.2165 13 14 12.2165 14 11.25C14 10.2835 13.2165 9.5 12.25 9.5C11.2835 9.5 10.5 10.2835 10.5 11.25ZM15.5 11.25C15.5 13.0449 14.0449 14.5 12.25 14.5H3.25C1.45507 14.5 0 13.0449 0 11.25C0 9.45507 1.45507 8 3.25 8H12.25C14.0449 8 15.5 9.45507 15.5 11.25ZM6.5 3.25C6.5 3.89448 6.31184 4.49477 5.98828 5H12.25C13.2165 5 14 4.2165 14 3.25C14 2.2835 13.2165 1.5 12.25 1.5H5.98828C6.31184 2.00523 6.5 2.60552 6.5 3.25ZM15.5 3.25C15.5 5.04493 14.0449 6.5 12.25 6.5H3.25C1.45507 6.5 0 5.04493 0 3.25C0 1.45507 1.45507 0 3.25 0H12.25C14.0449 0 15.5 1.45507 15.5 3.25Z" fill="var(--fill-0, black)"/>
</svg>
