<svg preserveAspectRatio="none" width="100%" height="100%" overflow="visible" style="display: block;" viewBox="0 0 15.5 15.5" fill="none" xmlns="http://www.w3.org/2000/svg">
<path id="Union" d="M14.75 10.5C15.1642 10.5 15.5 10.8358 15.5 11.25V13C15.5 14.3807 14.3807 15.5 13 15.5H2.5C1.11929 15.5 0 14.3807 0 13V11.25C0 10.8358 0.335786 10.5 0.75 10.5C1.16421 10.5 1.5 10.8358 1.5 11.25V13C1.5 13.5523 1.94772 14 2.5 14H13C13.5523 14 14 13.5523 14 13V11.25C14 10.8358 14.3358 10.5 14.75 10.5ZM7.75 0C8.16421 0 8.5 0.335786 8.5 0.75V9.43945L10.7197 7.21973C11.0126 6.92683 11.4874 6.92683 11.7803 7.21973C12.0732 7.51262 12.0732 7.98738 11.7803 8.28027L8.28027 11.7803C7.98738 12.0732 7.51262 12.0732 7.21973 11.7803L3.71973 8.28027C3.42683 7.98738 3.42683 7.51262 3.71973 7.21973C4.01262 6.92683 4.48738 6.92683 4.78027 7.21973L7 9.43945V0.75C7 0.335786 7.33579 0 7.75 0Z" fill="var(--fill-0, black)"/>
</svg>
