<svg preserveAspectRatio="none" width="100%" height="100%" overflow="visible" style="display: block;" viewBox="0 0 18.6663 18.6663" fill="none" xmlns="http://www.w3.org/2000/svg">
<g id="Vector">
<path d="M8.33333 4.33301V1C8.33333 0.447715 8.78105 0 9.33333 0C9.88562 0 10.3333 0.447715 10.3333 1V4.33301C10.3333 4.88529 9.88562 5.33301 9.33333 5.33301C8.78105 5.33301 8.33333 4.88529 8.33333 4.33301Z" fill="black" fill-opacity="0.2"/>
<path d="M8.33333 17.6663V14.3333C8.33333 13.781 8.78105 13.3333 9.33333 13.3333C9.88562 13.3333 10.3333 13.781 10.3333 14.3333V17.6663C10.3333 18.2186 9.88562 18.6663 9.33333 18.6663C8.78105 18.6663 8.33333 18.2186 8.33333 17.6663Z" fill="black" fill-opacity="0.7"/>
<path d="M2.73464 2.73464C3.12516 2.34411 3.75817 2.34411 4.1487 2.73464L6.5071 5.09303C6.89756 5.48356 6.8976 6.11659 6.5071 6.5071C6.11659 6.8976 5.48356 6.89756 5.09303 6.5071L2.73464 4.1487C2.34411 3.75817 2.34411 3.12516 2.73464 2.73464Z" fill="black" fill-opacity="0.35"/>
<path d="M12.1596 12.1596C12.5502 11.7691 13.1832 11.7691 13.5737 12.1596L15.9321 14.518C16.3226 14.9086 16.3226 15.5416 15.9321 15.9321C15.5416 16.3226 14.9086 16.3226 14.518 15.9321L12.1596 13.5737C11.7691 13.1832 11.7691 12.5502 12.1596 12.1596Z" fill="black" fill-opacity="0.8"/>
<path d="M4.33301 8.33333C4.88529 8.33333 5.33301 8.78105 5.33301 9.33333C5.33301 9.88562 4.88529 10.3333 4.33301 10.3333H1C0.447715 10.3333 0 9.88562 0 9.33333C0 8.78105 0.447715 8.33333 1 8.33333H4.33301Z" fill="black" fill-opacity="0.5"/>
<path d="M17.6663 8.33333C18.2186 8.33333 18.6663 8.78105 18.6663 9.33333C18.6663 9.88562 18.2186 10.3333 17.6663 10.3333H14.3333C13.781 10.3333 13.3333 9.88562 13.3333 9.33333C13.3333 8.78105 13.781 8.33333 14.3333 8.33333H17.6663Z" fill="black"/>
<path d="M5.09303 12.1596C5.48356 11.7691 6.11658 11.7691 6.5071 12.1596C6.89758 12.5502 6.89758 13.1832 6.5071 13.5737L4.1487 15.9321C3.75818 16.3226 3.12515 16.3226 2.73464 15.9321C2.34412 15.5416 2.34414 14.9086 2.73464 14.518L5.09303 12.1596Z" fill="black" fill-opacity="0.6"/>
<path d="M14.518 2.73464C14.9086 2.34414 15.5416 2.34412 15.9321 2.73464C16.3226 3.12515 16.3226 3.75818 15.9321 4.1487L13.5737 6.5071C13.1832 6.89758 12.5502 6.89758 12.1596 6.5071C11.7691 6.11658 11.7691 5.48356 12.1596 5.09303L14.518 2.73464Z" fill="var(--fill-0, black)" fill-opacity="0.1"/>
</g>
</svg>
