<svg preserveAspectRatio="none" width="100%" height="100%" overflow="visible" style="display: block;" viewBox="0 0 32.001 32.0039" fill="none" xmlns="http://www.w3.org/2000/svg">
<g id="Union">
<path d="M17.1279 2.25781C16.4508 2.25781 15.784 2.30298 15.1309 2.39062C15.6174 3.18731 15.9849 4.06391 16.2139 4.99512C16.5155 4.97272 16.8205 4.96191 17.1279 4.96191C23.8485 4.96202 29.2968 10.4103 29.2969 17.1309C29.2969 23.8516 23.8486 29.2997 17.1279 29.2998C10.4072 29.2998 4.95898 23.8516 4.95898 17.1309C4.95899 16.8234 4.97075 16.5186 4.99316 16.2168C4.06187 15.988 3.18548 15.6212 2.38867 15.1348C2.30107 15.7877 2.25489 16.4539 2.25488 17.1309C2.25488 25.3451 8.91367 32.0039 17.1279 32.0039C25.3421 32.0038 32.001 25.3451 32.001 17.1309C32.0009 8.91675 25.342 2.25792 17.1279 2.25781Z" fill="var(--fill-0, black)"/>
<path d="M7.21191 0C3.22935 0 0.00017832 3.22842 0 7.21094C0 11.1936 3.22924 14.4229 7.21191 14.4229C11.1944 14.4227 14.4229 11.1935 14.4229 7.21094C14.4227 3.22853 11.1943 0.000178322 7.21191 0Z" fill="var(--fill-0, black)"/>
</g>
</svg>
