<svg preserveAspectRatio="none" width="100%" height="100%" overflow="visible" style="display: block;" viewBox="0 0 35 35" fill="none" xmlns="http://www.w3.org/2000/svg">
<path id="Union" d="M35 10.251V24.749L24.749 35H12.4962C11.4271 35 10.7012 33.9134 11.1105 32.9258C11.3427 32.3654 11.8896 32 12.4962 32H23.5059L32 23.5059V11.4941L28.877 8.37109L24.167 13.0801C25.0083 14.3466 25.5 15.8655 25.5 17.5C25.5 21.9183 21.9183 25.5 17.5 25.5C15.8655 25.5 14.3466 25.0083 13.0801 24.167L6.25 30.999L0 24.749V10.251L10.251 0H22.5038C23.5729 0 24.2988 1.08656 23.8895 2.07423C23.6573 2.63463 23.1104 3 22.5038 3H11.4941L3 11.4941V23.5059L6.25 26.7559L10.9355 22.0693C10.032 20.7736 9.5 19.1994 9.5 17.5C9.5 13.0817 13.0817 9.5 17.5 9.5C19.1994 9.5 20.7736 10.032 22.0693 10.9355L28.877 4.12793L35 10.251Z" fill="var(--fill-0, black)"/>
</svg>
