<svg preserveAspectRatio="none" width="100%" height="100%" overflow="visible" style="display: block;" viewBox="0 0 36.8422 32" fill="none" xmlns="http://www.w3.org/2000/svg">
<g id="Union">
<path d="M18.6839 1.11156C17.2012 -0.370494 14.7974 -0.370543 13.3147 1.11156L1.11189 13.3163C-0.370454 14.7992 -0.370806 17.2028 1.11189 18.6855L13.3147 30.8883C14.7974 32.3706 17.2012 32.3705 18.6839 30.8883L23.7675 25.8048L21.7129 23.7501L16.6293 28.8337C16.2814 29.1811 15.7172 29.1811 15.3693 28.8337L3.1665 16.6309C2.81866 16.283 2.81902 15.7189 3.1665 15.3709L15.3693 3.16806C15.7173 2.82009 16.2813 2.82006 16.6293 3.16806L21.7129 8.25162L23.7675 6.19512L18.6839 1.11156Z" fill="var(--fill-0, black)"/>
<path d="M28.274 7.05594C27.9261 6.70869 27.36 6.70852 27.0121 7.05594L19.5088 14.5611C19.4776 14.5591 19.446 14.5574 19.4142 14.5574H8.08547C7.28369 14.5578 6.63293 15.2086 6.63248 16.0103C6.63273 16.8123 7.28356 17.4629 8.08547 17.4633H19.4142C19.4557 17.4633 19.4966 17.4592 19.5372 17.4558L27.0121 24.9345C27.3601 25.2824 27.926 25.2823 28.274 24.9345L36.5814 16.6252C36.929 16.2772 36.9292 15.7131 36.5814 15.3652L28.274 7.05594Z" fill="var(--fill-0, black)"/>
</g>
</svg>
