<svg preserveAspectRatio="none" width="100%" height="100%" overflow="visible" style="display: block;" viewBox="0 0 29 37" fill="none" xmlns="http://www.w3.org/2000/svg">
<path id="Vector" d="M27.5 7.16667C27.5 10.2963 21.6797 12.8333 14.5 12.8333C7.3203 12.8333 1.5 10.2963 1.5 7.16667M27.5 7.16667C27.5 4.03705 21.6797 1.5 14.5 1.5C7.3203 1.5 1.5 4.03705 1.5 7.16667M27.5 7.16667V18.5M1.5 7.16667V18.5M1.5 18.5C1.5 21.6299 7.32075 24.1667 14.5 24.1667C21.6793 24.1667 27.5 21.6299 27.5 18.5M1.5 18.5V29.8333C1.5 32.9632 7.32075 35.5 14.5 35.5C21.6793 35.5 27.5 32.9632 27.5 29.8333V18.5" stroke="var(--stroke-0, black)" stroke-width="3" stroke-linecap="round"/>
</svg>
