<svg preserveAspectRatio="none" width="100%" height="100%" overflow="visible" style="display: block;" viewBox="0 0 16.6025 20.4609" fill="none" xmlns="http://www.w3.org/2000/svg">
<g id="Vector">
<path d="M10.0996 7.96094H16.2051L14.0771 10.1035C14.0397 10.0854 14.0021 10.0667 13.9639 10.0488L13.6416 8.48047H10.5635L10.4404 9.0791L10.3613 9.46094H8.10254L9.33008 5.23047L3.60254 11H7.48047L6.96094 11.8564L6.62891 12.4053L7.11914 12.8184L7.48438 13.127L7.02148 14.7246L6.62891 15.0557L7.58789 16.6396L3.7959 20.4609L6.10547 12.5H0L12.4092 0L10.0996 7.96094Z" fill="var(--fill-0, black)"/>
<path d="M11.1747 18.2305L10.8964 16.8805C10.7108 16.8055 10.5368 16.7267 10.3744 16.6442C10.2121 16.5617 10.0458 16.4605 9.87573 16.3405L8.53037 16.7455L7.60254 15.2155L8.66955 14.3155C8.63862 14.1355 8.62316 13.9405 8.62316 13.7305C8.62316 13.5205 8.63862 13.3255 8.66955 13.1455L7.60254 12.2455L8.53037 10.7155L9.87573 11.1205C10.0458 11.0005 10.2121 10.8992 10.3744 10.8167C10.5368 10.7342 10.7108 10.6555 10.8964 10.5805L11.1747 9.23047H13.0304L13.3087 10.5805C13.4943 10.6555 13.6683 10.7342 13.8306 10.8167C13.993 10.8992 14.1592 11.0005 14.3293 11.1205L15.6747 10.7155L16.6025 12.2455L15.5355 13.1455C15.5665 13.3255 15.5819 13.5205 15.5819 13.7305C15.5819 13.9405 15.5665 14.1355 15.5355 14.3155L16.6025 15.2155L15.6747 16.7455L14.3293 16.3405C14.1592 16.4605 13.993 16.5617 13.8306 16.6442C13.6683 16.7267 13.4943 16.8055 13.3087 16.8805L13.0304 18.2305H11.1747ZM12.1025 15.5305C12.6128 15.5305 13.0497 15.3542 13.4131 15.0017C13.7765 14.6492 13.9582 14.2255 13.9582 13.7305C13.9582 13.2355 13.7765 12.8117 13.4131 12.4592C13.0497 12.1067 12.6128 11.9305 12.1025 11.9305C11.5922 11.9305 11.1554 12.1067 10.792 12.4592C10.4286 12.8117 10.2469 13.2355 10.2469 13.7305C10.2469 14.2255 10.4286 14.6492 10.792 15.0017C11.1554 15.3542 11.5922 15.5305 12.1025 15.5305Z" fill="var(--fill-0, black)"/>
</g>
</svg>
