<svg preserveAspectRatio="none" width="100%" height="100%" overflow="visible" style="display: block;" viewBox="0 0 11.6013 15.1825" fill="none" xmlns="http://www.w3.org/2000/svg">
<path id="electric_bolt" d="M5.09816 9.38292L0.569405 8.65688C0.290517 8.60674 0.11128 8.44569 0.0316968 8.17375C-0.0478865 7.90181 0.0223915 7.67236 0.24253 7.48542L8.26649 0.139375C8.31982 0.0859028 8.37961 0.0493052 8.44586 0.029583C8.51211 0.00986075 8.60295 0 8.71836 0C8.9042 0 9.04843 0.0809033 9.15107 0.242709C9.25357 0.404514 9.26267 0.569862 9.17836 0.73875L6.48107 5.80771L11.0261 6.53354C11.3048 6.58382 11.4854 6.74354 11.5677 7.01271C11.65 7.28201 11.581 7.51014 11.3609 7.69708L3.33691 15.0513C3.28357 15.1046 3.22378 15.1398 3.15753 15.1569C3.09128 15.174 3.00045 15.1825 2.88503 15.1825C2.6992 15.1825 2.55767 15.1016 2.46045 14.9398C2.36322 14.778 2.35413 14.6153 2.43316 14.4519L5.09816 9.38292Z" fill="var(--fill-0, #1C1B1F)"/>
</svg>
