<svg preserveAspectRatio="none" width="100%" height="100%" overflow="visible" style="display: block;" viewBox="0 0 17.5005 17.5" fill="none" xmlns="http://www.w3.org/2000/svg">
<g id="Vector">
<path d="M6.50986 1.5856C6.59402 1.10341 7.03093 0.75 7.54288 0.75H9.95764C10.4696 0.75 10.9065 1.10341 10.9907 1.5856L11.1894 2.72431C11.2475 3.05679 11.4802 3.33374 11.789 3.49699C11.8581 3.53348 11.9263 3.57119 11.9937 3.61006C12.2963 3.78453 12.6643 3.83877 12.9953 3.72036L14.1281 3.31513C14.6076 3.14364 15.1465 3.32823 15.4025 3.75158L16.6099 5.74841C16.8659 6.17176 16.7638 6.70976 16.3685 7.02045L15.4336 7.7554C15.1613 7.96945 15.0263 8.29997 15.0328 8.63669C15.0336 8.67438 15.0339 8.71215 15.0339 8.75C15.0339 8.78785 15.0336 8.82561 15.0328 8.86329C15.0263 9.20002 15.1613 9.53054 15.4336 9.74459L16.3685 10.4795C16.7638 10.7902 16.8659 11.3282 16.6099 11.7516L15.4025 13.7484C15.1465 14.1718 14.6076 14.3563 14.1281 14.1849L12.9954 13.7796C12.6644 13.6612 12.2963 13.7155 11.9938 13.8899C11.9263 13.9288 11.8581 13.9665 11.789 14.003C11.4802 14.1663 11.2475 14.4432 11.1894 14.7757L10.9907 15.9144C10.9065 16.3966 10.4696 16.75 9.95764 16.75H7.54288C7.03093 16.75 6.59402 16.3966 6.50986 15.9144L6.3111 14.7757C6.25306 14.4432 6.02036 14.1663 5.71151 14.003C5.64246 13.9665 5.57421 13.9288 5.50678 13.8899C5.2042 13.7155 4.83618 13.6612 4.50518 13.7796L3.37239 14.1849C2.89297 14.3564 2.35398 14.1718 2.09801 13.7484L0.890629 11.7516C0.634654 11.3282 0.736732 10.7902 1.13198 10.4795L2.06694 9.7446C2.33924 9.53055 2.47422 9.20003 2.46769 8.86331C2.46696 8.82562 2.4666 8.78785 2.4666 8.75C2.4666 8.71215 2.46696 8.67439 2.46769 8.6367C2.47422 8.29999 2.33924 7.96946 2.06694 7.75541L1.13198 7.02047C0.736731 6.70977 0.634654 6.17177 0.890629 5.74842L2.09801 3.75159C2.35398 3.32824 2.89297 3.14365 3.37239 3.31515L4.50517 3.72037C4.83617 3.83878 5.20419 3.78453 5.50677 3.61007C5.5742 3.57119 5.64246 3.53349 5.71151 3.49699C6.02036 3.33374 6.25306 3.05679 6.3111 2.72431L6.50986 1.5856Z" stroke="var(--stroke-0, black)" stroke-width="1.5" stroke-miterlimit="8.2289"/>
<path d="M11.5428 8.74993C11.5428 10.2227 10.2924 11.4166 8.75005 11.4166C7.20766 11.4166 5.95731 10.2227 5.95731 8.74993C5.95731 7.27717 7.20766 6.08326 8.75005 6.08326C10.2924 6.08326 11.5428 7.27717 11.5428 8.74993Z" stroke="var(--stroke-0, black)" stroke-width="1.5" stroke-miterlimit="8.2289"/>
</g>
</svg>
