<svg preserveAspectRatio="none" width="100%" height="100%" overflow="visible" style="display: block;" viewBox="0 0 18 14" fill="none" xmlns="http://www.w3.org/2000/svg">
<g id="Union">
<path d="M9.0003 9.54545C10.3853 9.54545 11.5081 8.40582 11.5081 7C11.5081 5.59418 10.3853 4.45455 9.0003 4.45455C7.61526 4.45455 6.49246 5.59418 6.49246 7C6.49246 8.40582 7.61526 9.54545 9.0003 9.54545Z" fill="var(--fill-0, black)"/>
<path fill-rule="evenodd" clip-rule="evenodd" d="M0.0752456 6.53053C1.31851 2.73697 4.8439 0 9.00073 0C13.1556 0 16.6797 2.73442 17.9245 6.52523C18.0251 6.83159 18.0252 7.16306 17.9248 7.46947C16.6815 11.263 13.1561 14 8.99927 14C4.84437 14 1.32033 11.2656 0.0755195 7.47477C-0.0250796 7.16841 -0.0251753 6.83694 0.0752456 6.53053ZM13.389 7C13.389 9.46018 11.4241 11.4545 9.0003 11.4545C6.57648 11.4545 4.61158 9.46018 4.61158 7C4.61158 4.53982 6.57648 2.54545 9.0003 2.54545C11.4241 2.54545 13.389 4.53982 13.389 7Z" fill="var(--fill-0, black)"/>
</g>
</svg>
